<?xml version="1.0" standalone="no"?><!DOCTYPE svg PUBLIC "-//W3C//DTD SVG 1.1//EN" "http://www.w3.org/Graphics/SVG/1.1/DTD/svg11.dtd"><svg t="1741858469311" class="icon" viewBox="0 0 1024 1024" version="1.1" xmlns="http://www.w3.org/2000/svg" p-id="2301" width="16" height="16" xmlns:xlink="http://www.w3.org/1999/xlink"><path d="M905.805384 515.003944a30.686937 30.686937 0 0 0-19.39996-27.618944l-0.191999-0.063999-314.548355-99.733796 314.129355-99.733795a31.199936 31.199936 0 0 0 20.042959-28.099943V17.165965a15.999967 15.999967 0 0 0 0.16-2.237996A14.924969 14.924969 0 0 0 891.069415 0a15.279969 15.279969 0 0 0-5.399989 0.990998l0.099999-0.032L138.174959 238.78551A29.04794 29.04794 0 0 0 118.129 266.052454v242.941502a27.729943 27.729943 0 0 0 19.39996 26.371946l0.192 0.064 317.971347 101.012793L137.72896 737.039488a31.172936 31.172936 0 0 0-19.59996 28.099943v242.557502a15.766968 15.766968 0 0 0-0.128 1.821997 14.48797 14.48797 0 0 0 14.48097 14.48097 14.169971 14.169971 0 0 0 5.337989-1.022998l-0.099999 0.032 748.426465-237.413513a27.770943 27.770943 0 0 0 19.59996-26.435946z" fill="#FF9800" p-id="2302"></path></svg>